<svg id="instagram" xmlns="http://www.w3.org/2000/svg" width="105.951" height="105.951" viewBox="0 0 105.951 105.951">
  <path id="Path_1" data-name="Path 1" d="M228.632,217.816A10.816,10.816,0,1,1,217.816,207,10.816,10.816,0,0,1,228.632,217.816Zm0,0" transform="translate(-164.84 -164.84)" fill="#2a6ebb"/>
  <path id="Path_2" data-name="Path 2" d="M187.165,142.922a10.7,10.7,0,0,0-6.132-6.132,17.878,17.878,0,0,0-6-1.112c-3.408-.155-4.43-.189-13.058-.189s-9.65.033-13.058.188a17.889,17.889,0,0,0-6,1.113,10.705,10.705,0,0,0-6.133,6.132,17.885,17.885,0,0,0-1.112,6c-.155,3.407-.189,4.429-.189,13.058s.033,9.65.189,13.058a17.878,17.878,0,0,0,1.112,6,10.7,10.7,0,0,0,6.132,6.132,17.856,17.856,0,0,0,6,1.113c3.407.155,4.428.188,13.057.188s9.651-.033,13.058-.188a17.856,17.856,0,0,0,6-1.113,10.7,10.7,0,0,0,6.132-6.132,17.894,17.894,0,0,0,1.113-6c.155-3.408.188-4.43.188-13.058s-.033-9.65-.188-13.058a17.856,17.856,0,0,0-1.113-6Zm-25.19,35.65a16.593,16.593,0,1,1,16.593-16.593A16.593,16.593,0,0,1,161.976,178.572Zm17.249-29.964a3.878,3.878,0,1,1,3.878-3.878A3.878,3.878,0,0,1,179.224,148.608Zm0,0" transform="translate(-109 -109.003)" fill="#2a6ebb"/>
  <path id="Path_3" data-name="Path 3" d="M52.975,0a52.975,52.975,0,1,0,52.975,52.975A52.981,52.981,0,0,0,52.975,0ZM83.211,65.517A22.319,22.319,0,0,1,81.8,72.9a15.554,15.554,0,0,1-8.9,8.9,22.332,22.332,0,0,1-7.383,1.414c-3.244.148-4.28.183-12.541.183s-9.3-.036-12.542-.183A22.332,22.332,0,0,1,33.051,81.8a15.554,15.554,0,0,1-8.9-8.9,22.313,22.313,0,0,1-1.414-7.383c-.15-3.245-.184-4.281-.184-12.542s.035-9.3.183-12.541a22.321,22.321,0,0,1,1.413-7.384,15.565,15.565,0,0,1,8.9-8.9,22.339,22.339,0,0,1,7.384-1.414c3.244-.148,4.28-.183,12.541-.183s9.3.036,12.541.184A22.344,22.344,0,0,1,72.9,24.152a15.559,15.559,0,0,1,8.9,8.9,22.318,22.318,0,0,1,1.415,7.384c.148,3.244.183,4.28.183,12.541S83.36,62.273,83.211,65.517Zm0,0" fill="#2a6ebb"/>
</svg>
