<svg xmlns="http://www.w3.org/2000/svg" width="114.147" height="114.147" viewBox="0 0 114.147 114.147">
  <path id="twitter" d="M57.074,0a57.074,57.074,0,1,0,57.074,57.074A57.08,57.08,0,0,0,57.074,0ZM83.133,44.5q.038.843.037,1.693c0,17.31-13.176,37.272-37.273,37.273h0a37.08,37.08,0,0,1-20.08-5.884,26.645,26.645,0,0,0,3.125.181,26.285,26.285,0,0,0,16.271-5.608,13.115,13.115,0,0,1-12.238-9.1,13.056,13.056,0,0,0,5.917-.225A13.1,13.1,0,0,1,28.382,49.99c0-.059,0-.112,0-.167a13.01,13.01,0,0,0,5.933,1.638,13.111,13.111,0,0,1-4.056-17.489,37.193,37.193,0,0,0,27,13.688A13.107,13.107,0,0,1,79.587,35.713a26.275,26.275,0,0,0,8.319-3.18,13.151,13.151,0,0,1-5.761,7.246,26.127,26.127,0,0,0,7.523-2.063A26.622,26.622,0,0,1,83.133,44.5Zm0,0" fill="#2a6ebb"/>
</svg>
